# xmcd
# Track frame offsets:
# 150
# 15497
# 30025
# 43367
# 57799
# 71619
# 83704
# 95741
# 107120
# 123761
#
# Disc length: 1825 seconds
# Revision: 0
# Processed by: cddbd v1.4PL0 Copyright (c) Steve Scherf et al.
# Submitted via: VisiTrax 2.9.5.181 - For more info visit www.synapsa.com
#
DISCID=76071f0a
DTITLE=Tanya Tucker - Greatest Hits
DYEAR=1900
DGENRE=
TTITLE0=Delta Dawn
TTITLE1=Blood Red And Going Down
TTITLE2=The Jamestown Ferry
TTITLE3=What's Your Mama's Name
TTITLE4=I Believe The South Is Gonna Rise Again
TTITLE5=Would You Lay With Me (In A Field Of Stone)
TTITLE6=Love's The Answer
TTITLE7=Rainy Girl
TTITLE8=No Man's Land
TTITLE9=Tha Man That Turned My Mama On
EXTD=
EXTT0=
EXTT1=
EXTT2=
EXTT3=
EXTT4=
EXTT5=
EXTT6=
EXTT7=
EXTT8=
EXTT9=
PLAYORDER=
